<?xml version="1.0" standalone="no"?>
<!DOCTYPE svg PUBLIC "-//W3C//DTD SVG 20010904//EN"
 "http://www.w3.org/TR/2001/REC-SVG-20010904/DTD/svg10.dtd">
<svg version="1.0" xmlns="http://www.w3.org/2000/svg"
 width="300.000000pt" height="300.000000pt" viewBox="0 0 300.000000 300.000000"
 preserveAspectRatio="xMidYMid meet">
<metadata>
Created by potrace 1.14, written by Peter Selinger 2001-2017
</metadata>
<g transform="translate(0.000000,300.000000) scale(0.100000,-0.100000)"
fill="#000000" stroke="none">
<path d="M1345 2993 c-171 -22 -353 -76 -489 -144 -74 -38 -214 -123 -226
-138 -3 -3 -27 -24 -55 -45 -140 -111 -276 -280 -370 -461 -43 -83 -106 -256
-121 -330 -4 -22 -8 -44 -9 -50 -14 -62 -26 -176 -26 -242 0 -109 30 -168 104
-203 l32 -15 2 -118 c1 -64 -1 -117 -5 -118 -4 0 -24 -2 -46 -5 -52 -5 -95
-32 -117 -74 -18 -32 -19 -63 -19 -393 0 -333 1 -360 19 -395 30 -58 69 -74
174 -70 l89 3 -1 587 0 586 24 6 c33 8 92 71 104 110 5 17 12 69 15 116 17
237 83 420 215 595 59 78 171 186 241 233 30 20 57 40 60 43 3 4 43 24 90 47
143 67 283 102 434 106 91 2 227 -13 294 -33 18 -5 33 -9 35 -9 8 4 125 -41
187 -72 171 -86 322 -221 422 -376 48 -74 112 -212 124 -266 1 -5 3 -10 4 -13
1 -3 4 -9 5 -15 1 -5 4 -12 5 -15 1 -3 3 -8 4 -12 2 -10 15 -70 20 -99 2 -11
7 -65 11 -120 4 -54 14 -114 22 -132 17 -35 64 -79 99 -92 l22 -9 0 -581 c0
-320 2 -583 5 -586 8 -9 162 -5 187 4 30 12 60 39 77 69 9 15 12 121 13 383 0
314 -2 365 -16 395 -20 42 -68 74 -120 79 -22 3 -42 5 -46 5 -3 1 -6 53 -7
116 l0 115 32 14 c44 18 84 61 98 103 8 24 10 76 6 157 -26 514 -334 982 -795
1207 -118 58 -127 62 -191 84 -53 18 -190 52 -246 60 -49 7 -329 14 -370 8z"/>
<path d="M1323 2515 c-258 -46 -494 -202 -642 -425 -55 -83 -85 -145 -78 -163
6 -15 10 -15 52 3 79 34 146 85 245 187 53 54 121 115 153 136 58 38 171 94
204 101 10 1 25 6 33 9 56 23 296 32 365 14 129 -33 204 -65 295 -127 35 -24
102 -83 149 -132 47 -50 106 -104 131 -121 57 -40 152 -87 162 -81 14 9 -4 57
-50 134 -24 41 -47 77 -51 80 -4 3 -14 15 -23 28 -15 23 -106 118 -130 137
-76 60 -97 75 -107 75 -6 0 -11 4 -11 8 0 15 -202 104 -265 118 -11 2 -48 10
-83 18 -81 17 -257 17 -349 1z"/>
<path d="M1805 2139 c-38 -10 -81 -21 -95 -23 -83 -16 -426 -108 -435 -117 -6
-6 -10 -116 -10 -287 -1 -238 -3 -276 -15 -272 -8 3 -45 5 -82 5 -59 0 -70 -3
-105 -31 -55 -45 -76 -87 -76 -149 0 -93 64 -165 160 -183 29 -5 55 -6 59 -3
3 3 9 6 12 7 48 6 114 69 130 122 6 21 11 131 11 260 0 123 1 225 3 227 5 5
443 115 457 115 8 0 11 -34 9 -117 -3 -99 -5 -117 -18 -114 -60 15 -80 16
-115 9 -84 -17 -145 -95 -145 -185 0 -122 127 -212 244 -173 56 18 110 76 122
131 3 13 5 190 6 392 0 338 -1 370 -17 387 -10 11 -21 20 -24 19 -3 0 -37 -9
-76 -20z"/>
<path d="M498 1309 c-53 -8 -83 -30 -107 -79 -16 -32 -17 -82 -16 -580 1 -573
0 -565 46 -611 32 -32 64 -39 189 -39 148 0 183 13 219 83 12 23 15 118 15
575 0 527 -1 549 -19 582 -33 55 -75 72 -186 74 -53 0 -116 -2 -141 -5z"/>
<path d="M2271 1309 c-46 -9 -76 -33 -97 -76 -18 -36 -19 -68 -18 -583 0 -504
2 -548 18 -575 37 -62 58 -70 203 -73 152 -4 188 7 225 67 l23 36 0 545 c0
527 0 546 -20 585 -31 61 -62 73 -192 77 -62 2 -126 0 -142 -3z"/>
<path d="M1494 980 c-12 -5 -25 -13 -28 -19 -4 -5 -6 -143 -7 -306 0 -313 2
-325 46 -325 46 0 48 12 48 326 -1 276 -2 297 -19 314 -14 13 -25 16 -40 10z"/>
<path d="M1231 876 c-13 -15 -18 -397 -6 -428 9 -23 31 -29 60 -18 28 11 26
-10 27 253 0 126 -3 182 -12 192 -16 19 -54 19 -69 1z"/>
<path d="M1699 868 c-8 -15 -12 -87 -11 -222 0 -180 2 -201 18 -213 19 -14 54
-8 66 11 4 6 8 102 8 214 0 163 -3 206 -14 218 -21 21 -54 17 -67 -8z"/>
<path d="M1003 784 c-15 -10 -18 -29 -17 -129 0 -100 3 -119 17 -130 22 -16
54 -9 66 14 10 18 13 144 5 207 -4 35 -9 43 -29 47 -14 2 -33 -2 -42 -9z"/>
<path d="M1943 785 c-20 -14 -21 -23 -21 -123 1 -120 3 -129 28 -142 13 -7 24
-4 42 10 24 18 24 23 23 131 -1 96 -4 114 -20 125 -23 17 -26 17 -52 -1z"/>
</g>
</svg>
